# xmcd CD database file
#
# Track frame offsets:
#	150
#	11712
#	41660
#	76110
#	100117
#	120192
#	131840
#	146667
#	169992
#	191275
#	220612
#	255072
#
# Disc length: 3698 seconds
#
# Revision: 2
# Processed by: cddbd v1.5.1PL0 Copyright (c) Steve Scherf et al.
# Submitted via: CDex 1.51
#
DISCID=920e700c
DTITLE=ムーティ/フィラデルフィア管弦楽団 - レスピーギ/ローマ三部作
DYEAR=1984
DGENRE=Classical
TTITLE0=交響詩”ローマの松”〜ボルジア荘の松
TTITLE1=交響詩”ローマの松”〜カタコンブ付近の松
TTITLE2=交響詩”ローマの松”〜ジャニコロの松
TTITLE3=交響詩”ローマの松”〜アッピア街道の松
TTITLE4=交響詩”ローマの噴水”〜夜明けのジュリアの谷の噴水
TTITLE5=交響詩”ローマの噴水”〜朝のトリトーネの噴水
TTITLE6=交響詩”ローマの噴水”〜昼のトレヴィの噴水
TTITLE7=交響詩”ローマの噴水”〜黄昏のメディチ荘の噴水
TTITLE8=交響詩”ローマの祭り”〜チルチェンセス
TTITLE9=交響詩”ローマの祭り”〜五十年祭
TTITLE10=交響詩”ローマの祭り”〜十月祭
TTITLE11=交響詩”ローマの祭り”〜主顕祭
EXTD=YEAR: 1984
EXTT0=
EXTT1=
EXTT2=
EXTT3=
EXTT4=
EXTT5=
EXTT6=
EXTT7=
EXTT8=
EXTT9=
EXTT10=
EXTT11=
PLAYORDER=
